/* XPM */
static char * 3_xpm[] = {
"32 32 6 1",
" 	c None",
".	c #F3F2F0",
"+	c #FFFFFF",
"@	c #6A655D",
"#	c #B3B0AC",
"$	c #E8E4DF",
"                                ",
"              ....              ",
"             .++...             ",
"             .+....             ",
"             ..@..@             ",
"           . ....@.             ",
"          ..  ..### $           ",
"         .     #...  $          ",
"        .      ##     $         ",
"       ..   $#.$#$#$  $         ",
"         ..$#.++..$#$  $        ",
"            .# $# #$ $$$$       ",
"            ..++..$$            ",
"            .  $#  $            ",
"            ..++..$$            ",
"            .  $#  $            ",
"             .++..$             ",
"               $#               ",
"            ..++.$$$            ",
"            . $$$$ #            ",
"             $$$###             ",
"            .      $            ",
"            .      $            ",
"            .      $            ",
"            .      $            ",
"            ..    $$            ",
"             .    $             ",
"             .    $             ",
"             .    $             ",
"             .    $             ",
"             .    $             ",
"            ..    $$            "};
