/* XPM */
static char * 0_xpm[] = {
"64 64 9 1",
" 	c #414149",
".	c #656575",
"+	c #303038",
"@	c #8E8EA2",
"#	c #595965",
"$	c #828296",
"%	c #4D4D59",
"&	c #9A9AB2",
"*	c #AAAAC3",
" ..+@@..#..............................................$..%%+.. ",
" ..+@@..#..............................................$..%%+.. ",
" ..+@@..#..@$..................@$.................@$...$..%%+.. ",
" ..+@@..#..$ ..................$ .................$ ...$..%%+.. ",
" ..+@@..#....#...................#..................#..$..%%+.. ",
" ..+@@..#..............................................$..%%+.. ",
" ..+@@..#..............................................$..%%+.. ",
" ..+@@..#..............................................$..%%+.. ",
" ..+@@..#..............................................$..%%+.. ",
" ..+@@..#..............................................$..%%+.. ",
" ..+@@..#..............................................$..%%+.. ",
" ..+@@..#..............................................$..%%+.. ",
" ..+@@..#..............................................$..%%+.. ",
" ..+@@..#..............................................$..%%+.. ",
" ..+@@..#..............................................$..%%+.. ",
" ..+@@..#..............................................$..%%+.. ",
" ..+@@..#..............................................$..%%+.. ",
" ..+@@..#..............................................$..%%+.. ",
" ..+@@..#..............................................$..%%+.. ",
" ..+@@..#..............................................$..%%+.. ",
" ..+@@..#..............................................$..%%+.. ",
" ..+@@..#..............................................$..%%+.. ",
" ..+@@..#..@$..................@$.................@$...$..%%+.. ",
" ..+@@..#..$ ..................$ .................$ ...$..%%+.. ",
" ..+@@..#....#...................#..................#..$..%%+.. ",
" ..+@@..#..............................................$..%%+.. ",
" ..+@@..#..............................................@..%%+.. ",
" ..+@@...$$$$$$$$$$$$$$$$$$$$$$$$$$$$$$$$$$$$$$$$$$$$$@&..%%+.. ",
" ..+@@....................................................%%+.. ",
" ..+@$.................................................... %+.. ",
" ..+$.#%%%%%%%%%%%%%%%%%%%%%%%%%%%%%%%%%%%%%%%%%%%%%%%%%% + +.. ",
" ..+.#%%%%%%%%%%%%%%%%%%%%%%%%%%%%%%%%%%%%%%%%%%%%%%%%%%%% ++.. ",
" ..+*&@@@@@@@@@@@@@@@@@@@@@@@@@@@@@@@@@@@@@@@@@@@@@@@@@@@@$.+.. ",
" ..+&*&@@@@@@@@@@@@@@@@@@@@@@@@@@@@@@@@@@@@@@@@@@@@@@@@@@$.#+.. ",
" ..+@&....................................................#%+.. ",
" ..+@@....................................................%%+.. ",
" ..+@@.. %#############################################...%%+.. ",
" ..+@@..%..............................................$..%%+.. ",
" ..+@@..#..............................................$..%%+.. ",
" ..+@@..#..@$..................@$.................@$...$..%%+.. ",
" ..+@@..#..$ ..................$ .................$ ...$..%%+.. ",
" ..+@@..#....#...................#..................#..$..%%+.. ",
" ..+@@..#..............................................$..%%+.. ",
" ..+@@..#..............................................$..%%+.. ",
" ..+@@..#..............................................$..%%+.. ",
" ..+@@..#..............................................$..%%+.. ",
" ..+@@..#..............................................$..%%+.. ",
" ..+@@..#..............................................$..%%+.. ",
" ..+@@..#..............................................$..%%+.. ",
" ..+@@..#..............................................$..%%+.. ",
" ..+@@..#..............................................$..%%+.. ",
" ..+@@..#..............................................$..%%+.. ",
" ..+@@..#..............................................$..%%+.. ",
" ..+@@..#..............................................$..%%+.. ",
" ..+@@..#..............................................$..%%+.. ",
" ..+@@..#..............................................$..%%+.. ",
" ..+@@..#..............................................$..%%+.. ",
" ..+@@..#..............................................$..%%+.. ",
" ..+@@..#..............................................$..%%+.. ",
" ..+@@..#..@$..................@$.................@$...$..%%+.. ",
" ..+@@..#..$ ..................$ .................$ ...$..%%+.. ",
" ..+@@..#....#...................#..................#..$..%%+.. ",
" ..+@@..#..............................................$..%%+.. ",
" ..+@@..#..............................................$..%%+.. "};
