/* XPM */
static char * 7_xpm[] = {
"64 64 10 1",
" 	c None",
".	c #414149",
"+	c #656575",
"@	c #303038",
"#	c #8E8EA2",
"$	c #828296",
"%	c #4D4D59",
"&	c #595965",
"*	c #AAAAC3",
"=	c #9A9AB2",
".++@#$++++++++++++++++++++++++++++++++++++++++++++++++++++.%@++.",
".++@$+&%%%%%%%%%%%%%%%%%%%%%%%%%%%%%%%%%%%%%%%%%%%%%%%%%%.@.@++.",
".++@+&%%%%%%%%%%%%%%%%%%%%%%%%%%%%%%%%%%%%%%%%%%%%%%%%%%%%.@@++.",
".++@                                                        @++.",
".++@                                                        @++.",
".++@                                                        @++.",
".++@                                                        @++.",
".++@                                                        @++.",
".++@                                                        @++.",
".++@                                                        @++.",
".++@                                                        @++.",
".++@                                                        @++.",
".++@                                                        @++.",
".++@                                                        @++.",
".++@                                                        @++.",
".++@                                                        @++.",
".++@                                                        @++.",
".++@                                                        @++.",
".++@                                                        @++.",
".++@                                                        @++.",
".++@                                                        @++.",
".++@                                                        @++.",
".++@                                                        @++.",
".++@                                                        @++.",
".++@                                                        @++.",
".++@                                                        @++.",
".++@                                                        @++.",
".++@                                                        @++.",
".++@                                                        @++.",
".++@                                                        @++.",
".++@                                                        @++.",
".++@                                                        @++.",
".++@                                                        @++.",
".++@                                                        @++.",
".++@                                                        @++.",
".++@                                                        @++.",
".++@                                                        @++.",
".++@                                                        @++.",
".++@                                                        @++.",
".++@                                                        @++.",
".++@                                                        @++.",
".++@                                                        @++.",
".++@                                                        @++.",
".++@                                                        @++.",
".++@                                                        @++.",
".++@                                                        @++.",
".++@                                                        @++.",
".++@                                                        @++.",
".++@                                                        @++.",
".++@                                                        @++.",
".++@                                                        @++.",
".++@                                                        @++.",
".++@                                                        @++.",
".++@                                                        @++.",
".++@                                                        @++.",
".++@                                                        @++.",
".++@                                                        @++.",
".++@                                                        @++.",
".++@                                                        @++.",
".++@                                                        @++.",
".++@                                                        @++.",
".++@*=####################################################$+@++.",
".++@=*=##################################################$+&@++.",
".++@#=++++++++++++++++++++++++++++++++++++++++++++++++++++&%@++."};
