/* XPM */
static char * ceiling_xpm[] = {
"64 64 10 1",
" 	c #B7AB49",
".	c #E3CC6A",
"+	c #C8B14D",
"@	c #907E3A",
"#	c #BBA84C",
"$	c #D3BB50",
"%	c #998741",
"&	c #D9C25E",
"*	c #C2B54E",
"=	c #EFD97E",
"    ....++++@@@@####....$$$$%%%%++++&&&&$$$$@@@@####....$$$$@@@@",
"    ....++++@@@@####....$$$$%%%%++++&&&&$$$$@@@@####....$$$$@@@@",
"    ....++++@@@@####....$$$$%%%%++++&&&&$$$$@@@@####....$$$$@@@@",
"    ....++++@@@@####....$$$$%%%%++++&&&&$$$$@@@@####....$$$$@@@@",
"    &&&&++++%%%%++++....&&&&%%%%####&&&&++++@@@@####&&&&$$$$%%%%",
"    &&&&++++%%%%++++....&&&&%%%%####&&&&++++@@@@####&&&&$$$$%%%%",
"    &&&&++++%%%%++++....&&&&%%%%####&&&&++++@@@@####&&&&$$$$%%%%",
"    &&&&++++%%%%++++....&&&&%%%%####&&&&++++@@@@####&&&&$$$$%%%%",
"****&&&&++++####....====....########....++++@@@@####&&&&$$$$%%%%",
"****&&&&++++####....====....########....++++@@@@####&&&&$$$$%%%%",
"****&&&&++++####....====....########....++++@@@@####&&&&$$$$%%%%",
"****&&&&++++####....====....########....++++@@@@####&&&&$$$$%%%%",
"****....++++@@@@    $$$$    @@@@####....++++%%%%++++....&&&&%%%%",
"****....++++@@@@    $$$$    @@@@####....++++%%%%++++....&&&&%%%%",
"****....++++@@@@    $$$$    @@@@####....++++%%%%++++....&&&&%%%%",
"****....++++@@@@    $$$$    @@@@####....++++%%%%++++....&&&&%%%%",
"****....$$$$@@@@####&&&&++++%%%%++++&&&&$$$$####....====....####",
"****....$$$$@@@@####&&&&++++%%%%++++&&&&$$$$####....====....####",
"****....$$$$@@@@####&&&&++++%%%%++++&&&&$$$$####....====....####",
"****....$$$$@@@@####&&&&++++%%%%++++&&&&$$$$####....====....####",
"****&&&&$$$$@@@@++++&&&&****@@@@++++&&&&$$$$@@@@    $$$$    @@@@",
"****&&&&$$$$@@@@++++&&&&****@@@@++++&&&&$$$$@@@@    $$$$    @@@@",
"****&&&&$$$$@@@@++++&&&&****@@@@++++&&&&$$$$@@@@    $$$$    @@@@",
"****&&&&$$$$@@@@++++&&&&****@@@@++++&&&&$$$$@@@@    $$$$    @@@@",
"    &&&&$$$$%%%%++++....****@@@@++++&&&&++++@@@@++++&&&&****%%%%",
"    &&&&$$$$%%%%++++....****@@@@++++&&&&++++@@@@++++&&&&****%%%%",
"    &&&&$$$$%%%%++++....****@@@@++++&&&&++++@@@@++++&&&&****%%%%",
"    &&&&$$$$%%%%++++....****@@@@++++&&&&++++@@@@++++&&&&****%%%%",
"    ....$$$$%%%%++++....++++@@@@####&&&&****%%%%++++&&&&****@@@@",
"    ....$$$$%%%%++++....++++@@@@####&&&&****%%%%++++&&&&****@@@@",
"    ....$$$$%%%%++++....++++@@@@####&&&&****%%%%++++&&&&****@@@@",
"    ....$$$$%%%%++++....++++@@@@####&&&&****%%%%++++&&&&****@@@@",
"****....&&&&%%%%++++&&&&++++%%%%++++&&&&****%%%%****&&&&++++@@@@",
"****....&&&&%%%%++++&&&&++++%%%%++++&&&&****%%%%****&&&&++++@@@@",
"****....&&&&%%%%++++&&&&++++%%%%++++&&&&****%%%%****&&&&++++@@@@",
"****....&&&&%%%%++++&&&&++++%%%%++++&&&&****%%%%****&&&&++++@@@@",
"....====....########&&&&$$$$%%%%####....++++%%%%****....++++%%%%",
"....====....########&&&&$$$$%%%%####....++++%%%%****....++++%%%%",
"....====....########&&&&$$$$%%%%####....++++%%%%****....++++%%%%",
"....====....########&&&&$$$$%%%%####....++++%%%%****....++++%%%%",
"    $$$$    @@@@####....$$$$%%%%####....$$$$%%%%####....++++@@@@",
"    $$$$    @@@@####....$$$$%%%%####....$$$$%%%%####....++++@@@@",
"    $$$$    @@@@####....$$$$%%%%####....$$$$%%%%####....++++@@@@",
"    $$$$    @@@@####....$$$$%%%%####....$$$$%%%%####....++++@@@@",
"    ....$$$$@@@@++++....$$$$%%%%++++....&&&&%%%%####....$$$$@@@@",
"    ....$$$$@@@@++++....$$$$%%%%++++....&&&&%%%%####....$$$$@@@@",
"    ....$$$$@@@@++++....$$$$%%%%++++....&&&&%%%%####....$$$$@@@@",
"    ....$$$$@@@@++++....$$$$%%%%++++....&&&&%%%%####....$$$$@@@@",
"****....$$$$%%%%++++&&&&$$$$####....====....########&&&&$$$$@@@@",
"****....$$$$%%%%++++&&&&$$$$####....====....########&&&&$$$$@@@@",
"****....$$$$%%%%++++&&&&$$$$####....====....########&&&&$$$$@@@@",
"****....$$$$%%%%++++&&&&$$$$####....====....########&&&&$$$$@@@@",
"****....++++%%%%####&&&&++++@@@@    $$$$    @@@@++++&&&&$$$$%%%%",
"****....++++%%%%####&&&&++++@@@@    $$$$    @@@@++++&&&&$$$$%%%%",
"****....++++%%%%####&&&&++++@@@@    $$$$    @@@@++++&&&&$$$$%%%%",
"****....++++%%%%####&&&&++++@@@@    $$$$    @@@@++++&&&&$$$$%%%%",
"    &&&&++++@@@@####&&&&$$$$@@@@####&&&&****%%%%++++&&&&++++%%%%",
"    &&&&++++@@@@####&&&&$$$$@@@@####&&&&****%%%%++++&&&&++++%%%%",
"    &&&&++++@@@@####&&&&$$$$@@@@####&&&&****%%%%++++&&&&++++%%%%",
"    &&&&++++@@@@####&&&&$$$$@@@@####&&&&****%%%%++++&&&&++++%%%%",
"    &&&&$$$$@@@@####....++++%%%%++++&&&&++++%%%%####....++++@@@@",
"    &&&&$$$$@@@@####....++++%%%%++++&&&&++++%%%%####....++++@@@@",
"    &&&&$$$$@@@@####....++++%%%%++++&&&&++++%%%%####....++++@@@@",
"    &&&&$$$$@@@@####....++++%%%%++++&&&&++++%%%%####....++++@@@@"};
