/* XPM */
static char * floor_xpm[] = {
"64 64 6 1",
" 	c #495E27",
".	c #6C8031",
"+	c #42552D",
"@	c #50692C",
"#	c #647233",
"$	c #70922D",
"    ....++++        ....@@@@        ####@@@@        @@@@@@@@$$$$",
"    ....++++        ....@@@@        ####@@@@        @@@@@@@@$$$$",
"    ....++++        ....@@@@        ####@@@@        @@@@@@@@$$$$",
"    ....++++        ....@@@@        ####@@@@        @@@@@@@@$$$$",
"....++++####....@@@@####$$$$    ++++@@@@####    ....    ########",
"....++++####....@@@@####$$$$    ++++@@@@####    ....    ########",
"....++++####....@@@@####$$$$    ++++@@@@####    ....    ########",
"....++++####....@@@@####$$$$    ++++@@@@####    ....    ########",
"++++    ....####++++        ####@@@@    @@@@....@@@@    ++++$$$$",
"++++    ....####++++        ####@@@@    @@@@....@@@@    ++++$$$$",
"++++    ....####++++        ####@@@@    @@@@....@@@@    ++++$$$$",
"++++    ....####++++        ####@@@@    @@@@....@@@@    ++++$$$$",
"++++@@@@@@@@++++$$$$....########@@@@@@@@    @@@@........####    ",
"++++@@@@@@@@++++$$$$....########@@@@@@@@    @@@@........####    ",
"++++@@@@@@@@++++$$$$....########@@@@@@@@    @@@@........####    ",
"++++@@@@@@@@++++$$$$....########@@@@@@@@    @@@@........####    ",
"    ++++@@@@$$$$    ####$$$$    ####        ....$$$$########@@@@",
"    ++++@@@@$$$$    ####$$$$    ####        ....$$$$########@@@@",
"    ++++@@@@$$$$    ####$$$$    ####        ....$$$$########@@@@",
"    ++++@@@@$$$$    ####$$$$    ####        ....$$$$########@@@@",
"@@@@####@@@@++++############        ....####++++    ####    ####",
"@@@@####@@@@++++############        ....####++++    ####    ####",
"@@@@####@@@@++++############        ....####++++    ####    ####",
"@@@@####@@@@++++############        ....####++++    ####    ####",
"....@@@@        @@@@####    ++++########    $$$$####++++@@@@    ",
"....@@@@        @@@@####    ++++########    $$$$####++++@@@@    ",
"....@@@@        @@@@####    ++++########    $$$$####++++@@@@    ",
"....@@@@        @@@@####    ++++########    $$$$####++++@@@@    ",
"++++....    @@@@++++    ....####    ####$$$$....####$$$$    $$$$",
"++++....    @@@@++++    ....####    ####$$$$....####$$$$    $$$$",
"++++....    @@@@++++    ....####    ####$$$$....####$$$$    $$$$",
"++++....    @@@@++++    ....####    ####$$$$....####$$$$    $$$$",
"    @@@@    @@@@    @@@@####....############    ########$$$$####",
"    @@@@    @@@@    @@@@####....############    ########$$$$####",
"    @@@@    @@@@    @@@@####....############    ########$$$$####",
"    @@@@    @@@@    @@@@####....############    ########$$$$####",
"        ....$$$$@@@@####    ####    $$$$....@@@@    @@@@    ####",
"        ....$$$$@@@@####    ####    $$$$....@@@@    @@@@    ####",
"        ....$$$$@@@@####    ####    $$$$....@@@@    @@@@    ####",
"        ....$$$$@@@@####    ####    $$$$....@@@@    @@@@    ####",
"@@@@....$$$$####        ....########    ########++++    $$$$####",
"@@@@....$$$$####        ....########    ########++++    $$$$####",
"@@@@....$$$$####        ....########    ########++++    $$$$####",
"@@@@....$$$$####        ....########    ########++++    $$$$####",
"@@@@@@@@    ++++############    $$$$    ####        ####@@@@    ",
"@@@@@@@@    ++++############    $$$$    ####        ####@@@@    ",
"@@@@@@@@    ++++############    $$$$    ####        ####@@@@    ",
"@@@@@@@@    ++++############    $$$$    ####        ####@@@@    ",
"####@@@@@@@@....####    $$$$....    ####    @@@@....####    ####",
"####@@@@@@@@....####    $$$$....    ####    @@@@....####    ####",
"####@@@@@@@@....####    $$$$....    ####    @@@@....####    ####",
"####@@@@@@@@....####    $$$$....    ####    @@@@....####    ####",
"@@@@....@@@@$$$$    ####....####        ....####    $$$$....####",
"@@@@....@@@@$$$$    ####....####        ....####    $$$$....####",
"@@@@....@@@@$$$$    ####....####        ....####    $$$$....####",
"@@@@....@@@@$$$$    ####....####        ....####    $$$$....####",
"    ####@@@@++++....####@@@@@@@@####@@@@$$$$....####....########",
"    ####@@@@++++....####@@@@@@@@####@@@@$$$$....####....########",
"    ####@@@@++++....####@@@@@@@@####@@@@$$$$....####....########",
"    ####@@@@++++....####@@@@@@@@####@@@@$$$$....####....########",
"####            $$$$########@@@@@@@@$$$$########@@@@    ####....",
"####            $$$$########@@@@@@@@$$$$########@@@@    ####....",
"####            $$$$########@@@@@@@@$$$$########@@@@    ####....",
"####            $$$$########@@@@@@@@$$$$########@@@@    ####...."};
