/* XPM */
static char * 1_xpm[] = {
"32 32 7 1",
" 	c None",
".	c #F3F2F0",
"+	c #FFFFFF",
"@	c #6A655D",
"#	c #B3B0AC",
"$	c #E8E4DF",
"%	c #C8B6AE",
"                                ",
"              ....              ",
"             .++...             ",
"             .+....             ",
"             ..@..@             ",
"             ....@.             ",
"              ..###             ",
"               #...             ",
"            $#.$#$#$            ",
"           $#.++..$#$           ",
"          . .# $# #$ $          ",
"         .. ..++..$$ $$         ",
"        ..  .  $#  $   $        ",
"        .   ..++..$$   $        ",
"       .    .  $#  $    $       ",
"        .    .++..$   $$        ",
"         .     $#   $$          ",
"          . ..++.$$%            ",
"            . $$$$ #            ",
"             $$$###             ",
"            .      $            ",
"            .      $            ",
"            .      $            ",
"            .      $            ",
"            .      $            ",
"             .    $             ",
"             .    $             ",
"             .    $             ",
"             .    $             ",
"             .    $             ",
"             .    $             ",
"            ..    $$            "};
