/* XPM */
static char * 5_xpm[] = {
"32 32 6 1",
" 	c None",
".	c #F3F2F0",
"+	c #FFFFFF",
"@	c #6A655D",
"#	c #E8E4DF",
"$	c #B3B0AC",
"                                ",
"              ....              ",
"             .++...             ",
"             .+@..@             ",
"            .....@.#            ",
"           .....$$$#            ",
"           .  ..... #           ",
"          .    $$..  #          ",
"          .     $$    #         ",
"         .             #        ",
"        ..            #         ",
"         ..          ##         ",
"          ..#$.#$#$###          ",
"           #$.++..#$#           ",
"            .$ #$ $#            ",
"            ..++..##            ",
"            .  #$  #            ",
"            ..++..##            ",
"            .  #$  #            ",
"             .++..#             ",
"            ..++.###            ",
"            . #### $            ",
"             ###$$$             ",
"           ..      #            ",
"           .        #           ",
"          ..        ##          ",
"          .          #          ",
"          ..        ##          ",
"           ..       #           ",
"             .     #            ",
"             .    #             ",
"            ..    ##            "};
