/* XPM */
static char * 8_xpm[] = {
"32 32 6 1",
" 	c None",
".	c #F3F2F0",
"+	c #6A655D",
"@	c #FFFFFF",
"#	c #B3B0AC",
"$	c #E8E4DF",
"                                ",
"                                ",
"                                ",
"                                ",
"                                ",
"                                ",
"                                ",
"                                ",
"              .+...             ",
"             .@@+#.             ",
"             .@..#.             ",
"             ..+...#            ",
"          .. .....##            ",
"          .   ...               ",
"          .                     ",
"         .                      ",
"         .                      ",
"                                ",
"                         $      ",
"                         $$     ",
"                          $     ",
"                          $     ",
"          ..$$.@$$        $     ",
"         .. $.# @###       $    ",
"        ..   ..@$..$$$ $        ",
"       .     .##@##$$   $$$$    ",
"             ..$@.$$#           ",
"             .$$$## #           ",
"                ####            ",
"           ..      ..           ",
"         .## ##   ..##$         ",
"        .......  $$$$$$$        "};
