/* XPM */
static char * 9_xpm[] = {
"32 32 6 1",
" 	c None",
".	c #6A655D",
"+	c #F3F2F0",
"@	c #B3B0AC",
"#	c #FFFFFF",
"$	c #E8E4DF",
"                                ",
"                                ",
"                                ",
"                                ",
"                                ",
"                                ",
"                                ",
"                                ",
"                                ",
"                                ",
"                                ",
"                                ",
"                                ",
"                                ",
"                                ",
"              .++@+             ",
"             +##.@+             ",
"             +#++++@            ",
"             ++.+++@            ",
"        +    +++++@             ",
"         +    +++               ",
"          +                     ",
"          +                     ",
"           +                    ",
"           +                    ",
"                           $    ",
"                  @ $      $    ",
"             $+#$$@$$  $   $    ",
"            $+@@#@@$$+  $  $$   ",
"           ++++#$+$++    $$ $   ",
"         ++@@@@$$@++@@$   $$    ",
"        +++++++@@$$$$$$$    $   "};
