/* XPM */
static char * 10_xpm[] = {
"32 32 6 1",
" 	c None",
".	c #F3F2F0",
"+	c #B3B0AC",
"@	c #6A655D",
"#	c #FFFFFF",
"$	c #E8E4DF",
"                                ",
"                                ",
"                                ",
"                                ",
"                                ",
"                                ",
"                                ",
"                                ",
"                                ",
"                                ",
"                                ",
"                                ",
"                                ",
"                                ",
"                                ",
"                                ",
"                                ",
"                                ",
"                                ",
"                                ",
"                                ",
"                                ",
"              ...+.             ",
"             .@#.+.             ",
"             .#.@..+            ",
"             .....++            ",
"             +..@++ $           ",
"           . $+++$$$$.          ",
"         .. $.$$#++$$.. $       ",
"        .. ....#+$$.. .. $      ",
"       . +.++$$$$...+$$...+$    ",
"      . +....++++$$+$$$$+..+$   "};
